REM MD5 c72ae4e9fa0c4838306a9a0d8f571ff4
FILE "Taikyoku Igo - Shinzui Gosennin (Japan).bin" BINARY
  TRACK 01 MODE2/2352
    INDEX 01 00:00:00
  TRACK 02 AUDIO
    INDEX 00 03:53:61
    INDEX 01 03:55:61
  TRACK 03 AUDIO
    INDEX 00 06:10:32
    INDEX 01 06:12:32
  TRACK 04 AUDIO
    INDEX 00 07:08:66
    INDEX 01 07:10:66
  TRACK 05 AUDIO
    INDEX 00 09:18:67
    INDEX 01 09:20:67
REM LEADOUT 12:18:12
